<svg xmlns="http://www.w3.org/2000/svg" viewBox="0 0 1320 120" width="1320" height="120"><circle cx="84" cy="22" r="1.1" fill="#f6e3c0" opacity="0.7"/><circle cx="212" cy="40" r="0.9" fill="#f6e3c0" opacity="0.5"/><circle cx="356" cy="18" r="1.2" fill="#f6e3c0" opacity="0.7"/><circle cx="470" cy="52" r="0.8" fill="#f6e3c0" opacity="0.5"/><circle cx="548" cy="26" r="1" fill="#f6e3c0" opacity="0.6"/><circle cx="690" cy="14" r="0.9" fill="#f6e3c0" opacity="0.6"/><circle cx="906" cy="28" r="1.1" fill="#f6e3c0" opacity="0.7"/><circle cx="1004" cy="16" r="0.8" fill="#f6e3c0" opacity="0.5"/><circle cx="1096" cy="46" r="1" fill="#f6e3c0" opacity="0.6"/><circle cx="1238" cy="24" r="1.2" fill="#f6e3c0" opacity="0.7"/><circle cx="1290" cy="58" r="0.8" fill="#f6e3c0" opacity="0.5"/><circle cx="30" cy="60" r="0.9" fill="#f6e3c0" opacity="0.5"/><circle cx="812" cy="40" r="34" fill="#f4d89a" opacity=".07"/><circle cx="812" cy="40" r="26" fill="#f4d89a" opacity=".09"/><circle cx="812" cy="40" r="18" fill="#f4d89a"/><circle cx="806" cy="37" r="3.4" fill="#caa876" opacity=".35"/><circle cx="817" cy="47" r="4.2" fill="#caa876" opacity=".3"/><path transform="translate(772 30) rotate(-12) scale(0.16)" d="M0-7 5-17 10-7Q26-28 58-26Q43-8 40 9Q24-4 17 13Q6 6 0 20Q-6 6-17 13Q-24-4-40 9Q-43-8-58-26Q-26-28-10-7L-5-17Z" fill="#120a17"/><path transform="translate(852 58) rotate(14) scale(0.12)" d="M0-7 5-17 10-7Q26-28 58-26Q43-8 40 9Q24-4 17 13Q6 6 0 20Q-6 6-17 13Q-24-4-40 9Q-43-8-58-26Q-26-28-10-7L-5-17Z" fill="#120a17"/><path transform="translate(742 52) rotate(-6) scale(0.1)" d="M0-7 5-17 10-7Q26-28 58-26Q43-8 40 9Q24-4 17 13Q6 6 0 20Q-6 6-17 13Q-24-4-40 9Q-43-8-58-26Q-26-28-10-7L-5-17Z" fill="#120a17"/><path transform="translate(300 36) rotate(10) scale(0.12)" d="M0-7 5-17 10-7Q26-28 58-26Q43-8 40 9Q24-4 17 13Q6 6 0 20Q-6 6-17 13Q-24-4-40 9Q-43-8-58-26Q-26-28-10-7L-5-17Z" fill="#120a17"/><path transform="translate(1150 30) rotate(-10) scale(0.11)" d="M0-7 5-17 10-7Q26-28 58-26Q43-8 40 9Q24-4 17 13Q6 6 0 20Q-6 6-17 13Q-24-4-40 9Q-43-8-58-26Q-26-28-10-7L-5-17Z" fill="#120a17"/><path d="M0 120V104C120 93 230 99 330 102S520 92 640 96 860 105 980 98 1200 90 1320 100V120Z" fill="#120a17"/><g transform="translate(118 0) scale(1 1)" fill="none" stroke="#120a17" stroke-linecap="round"><path d="M0 104C2 86-1 72 3 56" stroke-width="6"/><path d="M2 74C-8 66-14 62-24 60M-14 63c-4-6-5-11-4-16M3 64C12 56 18 50 30 47M20 52c3-6 8-9 14-10M3 57C1 47 6 38 5 28M5 40c-6-5-9-10-9-16M4 34c6-4 10-9 12-15" stroke-width="2.6"/></g><g transform="translate(1204 0) scale(-1 1)" fill="none" stroke="#120a17" stroke-linecap="round"><path d="M0 104C2 86-1 72 3 56" stroke-width="6"/><path d="M2 74C-8 66-14 62-24 60M-14 63c-4-6-5-11-4-16M3 64C12 56 18 50 30 47M20 52c3-6 8-9 14-10M3 57C1 47 6 38 5 28M5 40c-6-5-9-10-9-16M4 34c6-4 10-9 12-15" stroke-width="2.6"/></g><g transform="translate(470 0) scale(1 1)" fill="none" stroke="#120a17" stroke-linecap="round"><path d="M0 104C2 86-1 72 3 56" stroke-width="6"/><path d="M2 74C-8 66-14 62-24 60M-14 63c-4-6-5-11-4-16M3 64C12 56 18 50 30 47M20 52c3-6 8-9 14-10M3 57C1 47 6 38 5 28M5 40c-6-5-9-10-9-16M4 34c6-4 10-9 12-15" stroke-width="2.6"/></g><path d="M402 103V95M412 103V94M422 103V95M432 103V94M442 103V95M398 98h48" stroke="#120a17" stroke-width="2" fill="none"/><g fill="#120a17"><path d="M566 103V82l28-15 28 15v21Z"/><path d="M622 103V62h22v41Z"/><path d="M621 63l12-34 12 34Z"/><path d="M632 18h2v13h-2zM629 22h8v2h-8z"/></g><path d="M590 103V90a4 4 0 0 1 8 0v13Z" fill="#ffb658" opacity=".9"/><path d="M630 82v-7a3 3 0 0 1 6 0v7Z" fill="#ffb658" opacity=".85"/><g fill="#120a17"><path d="M668 101V93.0a6.0 6.0 0 0 1 12 0V101Z"/><path d="M688 101V95.0a5.0 5.0 0 0 1 10 0V101Z"/><path d="M706 101V91.0a6.0 6.0 0 0 1 12 0V101Z"/><path d="M728 101V94.0a5.0 5.0 0 0 1 10 0V101Z"/><path d="M748 101V86h3v-5h3v5h3v3h-3v12Z"/></g><g fill="#120a17"><path d="M948 104V80l24-18 24 18v24Z"/><path d="M982 72V58h7v19Z"/><path d="M996 104V86h30v18Z"/><path d="M994 88l17-12 17 12Z"/></g><path d="M958 84h9v9h-9zM977 84h9v9h-9z" fill="#ffb658" opacity=".8"/><path d="M1006 92h8v7h-8z" fill="#ffb658" opacity=".65"/><g transform="translate(540 98)"><path d="M0 -6.6499999999999995q1.05 -3.8500000000000005 4.2 -4.8999999999999995" stroke="#4c5f2e" stroke-width="2.1" fill="none" stroke-linecap="round"/><ellipse cx="-2.9" cy="0" rx="5.0" ry="6.3" fill="#c4581b"/><ellipse cx="2.9" cy="0" rx="5.0" ry="6.3" fill="#de812f"/><ellipse cx="0" cy="0" rx="3.9" ry="6.6" fill="#eb9a3e"/><path d="M-2.9 -0.8l1.1 -1.8 1.1 1.8ZM0.7 -0.8l1.1 -1.8 1.1 1.8ZM-2.8 1.4q2.8 2.1 5.6 0" fill="#3a1606" stroke="#3a1606" stroke-width="0.56"/></g><g transform="translate(556 100)"><path d="M0 -4.75q0.75 -2.75 3.0 -3.5" stroke="#4c5f2e" stroke-width="1.5" fill="none" stroke-linecap="round"/><ellipse cx="-2.1" cy="0" rx="3.6" ry="4.5" fill="#c4581b"/><ellipse cx="2.1" cy="0" rx="3.6" ry="4.5" fill="#de812f"/><ellipse cx="0" cy="0" rx="2.8" ry="4.8" fill="#eb9a3e"/><path d="M-2.1 -0.6l0.8 -1.3 0.8 1.3ZM0.5 -0.6l0.8 -1.3 0.8 1.3ZM-2.0 1.0q2.0 1.5 4.0 0" fill="#3a1606" stroke="#3a1606" stroke-width="0.40"/></g><g transform="translate(782 100)"><path d="M0 -5.699999999999999q0.8999999999999999 -3.3000000000000003 3.5999999999999996 -4.199999999999999" stroke="#4c5f2e" stroke-width="1.8" fill="none" stroke-linecap="round"/><ellipse cx="-2.5" cy="0" rx="4.3" ry="5.4" fill="#c4581b"/><ellipse cx="2.5" cy="0" rx="4.3" ry="5.4" fill="#de812f"/><ellipse cx="0" cy="0" rx="3.3" ry="5.7" fill="#eb9a3e"/><path d="M-2.5 -0.7l1.0 -1.6 1.0 1.6ZM0.6 -0.7l1.0 -1.6 1.0 1.6ZM-2.4 1.2q2.4 1.8 4.8 0" fill="#3a1606" stroke="#3a1606" stroke-width="0.48"/></g><g transform="translate(1060 99)"><path d="M0 -5.225q0.825 -3.0250000000000004 3.3 -3.8499999999999996" stroke="#4c5f2e" stroke-width="1.6" fill="none" stroke-linecap="round"/><ellipse cx="-2.3" cy="0" rx="4.0" ry="5.0" fill="#c4581b"/><ellipse cx="2.3" cy="0" rx="4.0" ry="5.0" fill="#de812f"/><ellipse cx="0" cy="0" rx="3.0" ry="5.2" fill="#eb9a3e"/><path d="M-2.3 -0.7l0.9 -1.4 0.9 1.4ZM0.6 -0.7l0.9 -1.4 0.9 1.4ZM-2.2 1.1q2.2 1.6 4.4 0" fill="#3a1606" stroke="#3a1606" stroke-width="0.44"/></g></svg>