<svg xmlns="http://www.w3.org/2000/svg" viewBox="0 0 64 64" role="img" aria-labelledby="title">
  <title id="title">Astor Library torch</title>
  <rect width="64" height="64" rx="10" fill="#10263b"/>
  <rect x="3.5" y="3.5" width="57" height="57" rx="7.5" fill="none" stroke="#d9b56f" stroke-width="1.5"/>
  <path d="M32 9c-5.9 6.9-8.1 11.4-6.6 15.2 1.2 3 3.8 4.9 6.6 4.9 4 0 7.1-3.1 7.1-7.3 0-3.8-2.2-7.8-4.2-11.6-.5 3.5-1.7 6.4-4.2 8.9.1-3.1.6-6.3 1.3-10.1Z" fill="#fff8ef"/>
  <path d="M22 31h20l-2.1 5H24.1L22 31Zm4.5 7h11v4h-11v-4Zm2 6h7v12h-7V44Z" fill="#d9b56f"/>
  <path d="M26 56h12" fill="none" stroke="#fff8ef" stroke-width="2.5" stroke-linecap="round"/>
</svg>
