<svg xmlns="http://www.w3.org/2000/svg" viewBox="0 0 600 900" role="img" aria-label="Macbeth Astor Library cover"><rect width="600" height="900" fill="#f7efe6"/><g fill="#081116" font-family="Georgia, 'Times New Roman', serif" text-anchor="middle"><text x="300" y="76" font-size="18" letter-spacing="12">ASTOR   LIBRARY</text><path d="M286 42c-21 25-15 48 3 65 18-18 32-41-3-65zm28 15c6 23-2 38-18 54 25-7 36-32 18-54zM282 118h36v12h-36zM287 130h26v58h-26zM293 142h4v38h-4zM305 142h4v38h-4z"/><text x="300" y="438" font-size="94" letter-spacing="10">MACBETH</text><text x="300" y="494" font-size="30" letter-spacing="9">WILLIAM SHAKESPEARE</text><text x="300" y="790" font-size="20" letter-spacing="8">ANNOTATED EDITION</text><text x="300" y="835" font-size="19" letter-spacing="7">NOTES BY HAYDN WOOD</text></g><g fill="#081116" opacity=".95"><path d="M68 126c40-50 54-22 24 10-18 19-38 29-54 40 13-20 16-32 30-50zM512 126c-40-50-54-22-24 10 18 19 38 29 54 40-13-20-16-32-30-50z" opacity=".55"/><g font-family="Georgia" font-size="28"><text x="130" y="210">♛</text><text x="450" y="250">♛</text><text x="300" y="642">♛</text><text x="160" y="670">✦</text><text x="430" y="680">✦</text><text x="92" y="340">✦</text><text x="512" y="512">✦</text></g><path d="M82 706c50-64 38-110 78-160M500 690c-38-58-28-99-72-145M128 286c40-48 34-85 76-120M468 350c-44-32-18-83-80-118" stroke="#081116" stroke-width="3" fill="none" stroke-linecap="round" opacity=".75"/><g><circle cx="82" cy="706" r="3"/><circle cx="105" cy="671" r="3"/><circle cx="138" cy="610" r="3"/><circle cx="500" cy="690" r="3"/><circle cx="476" cy="650" r="3"/><circle cx="440" cy="590" r="3"/></g></g></svg>
