<svg xmlns="http://www.w3.org/2000/svg" viewBox="0 0 600 900" role="img" aria-label="Astor Library Macbeth cover"><defs><filter id="soft"><feDropShadow dx="0" dy="2" stdDeviation="2" flood-opacity=".18"/></filter></defs><rect width="600" height="900" fill="#fbf3ec"/><g fill="#101719" stroke="#101719" stroke-width="2" stroke-linecap="round" opacity=".95"><path d="M72 112c28 46 5 77-38 102M92 520c34 38 15 72-25 108M510 110c-31 47-9 82 34 108M528 522c-34 42-12 75 25 108M175 145c35 45 12 80-32 118M420 710c36 40 16 75-26 112" fill="none"/><circle cx="62" cy="141" r="2"/><circle cx="81" cy="174" r="2"/><circle cx="47" cy="196" r="2"/><circle cx="521" cy="145" r="2"/><circle cx="501" cy="178" r="2"/><circle cx="542" cy="203" r="2"/><path d="M156 284c15-22 31-21 44 0-12 7-30 7-44 0z"/><path d="M149 283c6 9 11 16 26 20" fill="none"/><path d="M470 265c16-23 32-22 45 0-13 7-31 7-45 0z"/><path d="M463 264c7 10 12 17 27 21" fill="none"/><path d="M175 693c16-23 32-22 45 0-13 7-31 7-45 0z"/><path d="M168 692c7 10 12 17 27 21" fill="none"/></g><g fill="#101719" font-family="Georgia, 'Times New Roman', serif" text-anchor="middle"><text x="244" y="78" font-size="22" letter-spacing="13">ASTOR</text><text x="366" y="78" font-size="22" letter-spacing="13">LIBRARY</text><g transform="translate(282 28) scale(.45)"><path d="M42 4C19 33 10 62 22 86c6 13 17 23 34 30-4-29 5-46 20-65C87 37 72 17 42 4z"/><path d="M72 46c16 25 13 52-7 67-7 5-15 9-25 11 4-20 14-34 25-47 8-10 10-20 7-31z"/><path d="M30 118c3-9 12-14 20-14s17 5 20 14H30z"/><path d="M16 122h68v10H16z"/><path d="M22 137h56c-3 9-9 14-17 16H39c-8-2-14-7-17-16z"/><path d="M34 157h32l-10 11v14l-6 6-6-6v-14z"/><path d="M40 164h6v18h-6zm14 0h6v18h-6z" fill="#fbf3ec"/></g><text x="300" y="455" font-size="88" letter-spacing="12" filter="url(#soft)">MACBETH</text><text x="300" y="508" font-size="28" letter-spacing="9">WILLIAM SHAKESPEARE</text><text x="300" y="816" font-size="22" letter-spacing="8">ANNOTATED EDITION</text><text x="300" y="858" font-size="20" letter-spacing="7">NOTES BY HAYDN WOOD</text><text x="300" y="230" font-size="27">♛</text><text x="118" y="380" font-size="24">✦</text><text x="474" y="390" font-size="24">✦</text><text x="125" y="740" font-size="24">✦</text><text x="500" y="742" font-size="24">♛</text><text x="300" y="668" font-size="22">✦</text></g></svg>
