<svg xmlns="http://www.w3.org/2000/svg" width="1200" height="1800" viewBox="0 0 1200 1800" role="img" aria-labelledby="title desc">
  <title id="title">Uncle Tom's Cabin by Harriet Beecher Stowe</title>
  <desc id="desc">Astor Library temporary typographic cover</desc>
  <rect width="1200" height="1800" fill="#6e1f2b"/>
  <rect x="54" y="54" width="1092" height="1692" fill="none" stroke="#f7efe7" stroke-width="3"/>
  <path d="M150 305h900M150 1480h900" stroke="#d7b47b" stroke-width="5"/>
  <text x="600" y="190" fill="#f7efe7" text-anchor="middle" font-family="Georgia, Times New Roman, serif" font-size="44" letter-spacing="18">ASTOR LIBRARY</text>
  <text x="600" y="610" fill="#f7efe7" text-anchor="middle" font-family="Georgia, Times New Roman, serif" font-size="132">UNCLE TOM'S</text>
  <text x="600" y="760" fill="#f7efe7" text-anchor="middle" font-family="Georgia, Times New Roman, serif" font-size="168">CABIN</text>
  <text x="600" y="865" fill="#d7b47b" text-anchor="middle" font-family="Georgia, Times New Roman, serif" font-size="44" font-style="italic">A complete annotated edition</text>
  <g transform="translate(600 1120)" fill="none" stroke="#f7efe7" stroke-width="10" stroke-linecap="round">
    <path d="M-210 125c75-70 145-92 210-58 65-34 135-12 210 58"/>
    <path d="M-210 125V-28c75-34 145-27 210 23 65-50 135-57 210-23v153"/>
    <path d="M0-5v72"/>
  </g>
  <text x="600" y="1575" fill="#f7efe7" text-anchor="middle" font-family="Georgia, Times New Roman, serif" font-size="58" letter-spacing="5">HARRIET BEECHER STOWE</text>
  <text x="600" y="1655" fill="#d7b47b" text-anchor="middle" font-family="Arial, Helvetica, sans-serif" font-size="30" letter-spacing="10">COMPLETE TEXT · CONTEXT · STUDY</text>
</svg>
